
<svg version="1.1" id="Layer_1" xmlns="http://www.w3.org/2000/svg" xmlns:xlink="http://www.w3.org/1999/xlink" x="0px" y="0px"
	 viewBox="0 0 150 150" enable-background="new 0 0 150 150" xml:space="preserve">
<def>
	<style>
		.logo{
			stroke-dasharray: 800;
			stroke-dashoffset: 0;
			-webkit-animation: dash 2s linear forwards;
			-moz-animation: dash 2s linear forwards;
			animation: dash 2s linear forwards;
		}
		@-webkit-keyframes dash{
		from{
			stroke-dashoffset: 800;
			
		}
		to{
			stroke-dashoffset: 0;
			
		}
		}
		
	</style>
</def>

<g >
	<g>
		<g>
			<!--<path  class="logo" fill="#FFFFFF" d="M64,68.4l-1.2,2.3L60.9,72l-2,2.1l-1.4,2l-1.8,2.5l-1.9,2.1v1.3l-1.1,1.7l-1.1,2.9l-1.3,2.9l-1.7,3.2
				l-1.1,2.6l-1.1,2.5l-1.3,3.4l-1.7,3.6l-0.4,3.6l-1.1,3.3l-0.4,2.7l-0.7,2.1l0.7,1.5v2.1l-0.2,1.7l-1.5,1.7l-1.8,1.4l-2.3,0.4
				l-2.8-0.7l-1.1-1.2l-1.4-2l-0.8-3.1l-0.2-2.7l-1.3-2.8l-1.1-2.3l-1.7-3.1l-1.1-3.1l-1.8-2.9l-1.1-3.2l-4.6-11.8l-1.9-4l-0.9-6.1
				l-1.3-2L10.4,72L9,69.8l-1.1-2.7l-2.1-2.2l-1.6-2.1L4,61.1l0.2-2.5l2-2.3l3-1.1l4.3,0.2l3.9,0.6l3.5,1.2l3.1,1.7l2.3,2.3l2.7,2.2
				l4.3,1.9l1.3,1.9l0.3,2.7l0.9,2.4L35.5,74l-1.4,1.5l-0.4,2.1l0.4,2.8v2.5l1,2.7l0.4,3.1l0.7,2.6l0.5,3.1l0.2,2.7l-1.4,2v1.6
				l0.9,1.3l1.1-0.9l1.3-2.3l2.3-4.9l0.9-1.1l2.2-4.4l1.9-2.6v-2.3l1.8-2.4l1.2-2.3l2-2.1l1.1-2.2l2.3-1.8l1.8-1.7l2-2.3l1.5-1.7
				l0.9-0.9h1.3l1.7,1.3V68.4z"/>-->
			<path  class="logo" d="M35.6,125.6l-2.9-0.8l-1.2-1.3l-1.4-2.1l-0.8-3.1l-0.2-2.7l-2.4-5.1l-1.7-3l-1.1-3.2l-1.8-2.8l-1.1-3.3l-4.6-11.8l-1.9-4
				l-0.9-6.1l-1.3-2l-2.1-2.3l-1.4-2.3l-1.1-2.7l-2.1-2.2L4,62.8l-0.2-1.7L4,58.5l2.1-2.4l3.1-1.2l4.4,0.2l3.9,0.6l3.5,1.2l3.2,1.7
				l2.3,2.3l2.6,2.2l4.4,2l1.4,2l0.3,2.7l0.9,2.4l-0.5,1.9l-1.4,1.5l-0.4,2l0.4,2.7l0,2.5l1,2.6l0.5,3.1l0.7,2.6l0.5,3.1l0.2,2.8
				l-1.4,2v1.4l0.7,1l0.9-0.7l1.3-2.3l2.3-4.9l0.9-1.2l2.2-4.4l1.9-2.6v-2.3l1.8-2.5l1.2-2.3l2-2.1l1.2-2.3l2.3-1.8l1.8-1.7l3.4-4
				l1-1h1.5l1.8,1.4l0,1.5l-1.3,2.4l-1.8,1.3l-2,2.1l-3.2,4.5l-1.9,2.1v1.3l-1.2,1.7l-1.1,2.8l-1.3,2.9l-1.7,3.3l-1.1,2.6L46.6,98
				l-1.3,3.4l-1.7,3.6l-0.4,3.6l-1.1,3.4l-0.4,2.6l-0.6,2.1l0.7,1.5v2.1l-0.2,1.8l-1.5,1.7l-1.9,1.5L35.6,125.6z M32.9,124.4
				l2.7,0.7l2.1-0.4l1.8-1.4l1.4-1.6l0.2-1.6l0-2l-0.7-1.5l0.7-2.2l0.4-2.7l1.1-3.4l0.5-3.6l1.7-3.6l1.3-3.4l1.1-2.5l1.1-2.6
				l1.7-3.3l1.3-2.9l1.1-2.9l1.1-1.7v-1.3l2-2.2l3.2-4.5l2-2.2l1.8-1.3l1.2-2.2v-1.1l-1.5-1.2h-1.1l-0.8,0.8l-3.5,4L55,72.6
				l-2.3,1.7l-1.1,2.2l-2,2.1l-1.2,2.3l-1.8,2.4v2.3l-1.9,2.7l-2.2,4.4l-0.9,1.2l-2.3,4.9l-1.4,2.4l-1.3,1.1l-1.2-1.6v-1.7l1.4-2
				l-0.2-2.6l-0.5-3l-0.7-2.6l-0.5-3.1l-1-2.7v-2.5l-0.5-2.8l0.5-2.2l1.5-1.5l0.4-1.6l-0.9-2.3l-0.3-2.7l-1.3-1.7l-4.3-2l-2.7-2.2
				L23.9,59l-3.1-1.6l-3.4-1.2l-3.9-0.5l-4.3-0.2l-2.9,1.1l-1.9,2.2l-0.2,2.4l0.2,1.5L6,64.7L8.1,67l1.1,2.7l1.3,2.2l2.1,2.3
				l1.4,2.2l0.9,6.1l1.9,3.9l4.6,11.8l1.1,3.3l1.8,2.8l1.1,3.2l1.7,3l2.5,5.2l0.2,2.7l0.8,3l1.3,2L32.9,124.4z"/>
		</g>
		<g>
			<!--<path fill="#FFFFFF" d="M133.5,123.6l-0.4,1.4l-1.7,0.2h-2.9l-3.2-1.1l-3.5-1.6l-0.9-1.7l-2.8-1.8l-2.2-2.6l-3-2.3l-4.1-4.9
				l-1.6-2.3l-2.7-1.9l-3.2-1.9l-2.6-1.9l-2.9-1.6l-4.6-3.6l-3.9-3.5l-0.7,12.7l-0.4,2.4v8.6l-0.7,2.6l-0.6,6.3l-0.7,2.9l-2,7.5
				l-0.2,2.5l-1.1,2.3l-2.1,0.4l-1.8-0.4l-0.4-1.9v-3.2l2.2-4l1.1-3.4v-3.1l0.6-3.8l-0.3-3.4l0.3-4.5v-5.2l-0.3-5.1l-0.9-6.2
				l-2.2-4.3l-0.2-4.4v-5.3l0.2-3.4l0.4-3.2l-0.9-3.4v-4l0.2-4.4l0.2-1.9l-0.2-3.6l-1.2-3.1l-0.2-3.4v-5.7l-1.3-4.4l0.7-5.7
				l-2.5-3.1l0.2-5V25l-0.4-3.1l0.9-4.4l-0.7-3.8l1.3-2.7L76,8.8l2.2-2.4l2.6-2.5L83.9,3l3.5,0.6l2.2,0.9l3.2,1.6l2.8,2.2l2,2.7
				l1.1,2.2l0.2,2.5l-1.1,2.7L96.9,21l-1.3,3.4l-1.9,3.1l-0.2,3.2l-1.1,2.9l-1.1,4.2l0.4,3l-1.6,3.8l-2.6,3.2v4.7l-0.4,1.8l0.2,2.9
				v9.4l-0.2,2.7l0.7,4.4l-0.4,4.4l8.2-3.8l3.1-2.7l2.3-0.7l2.2-1.5l6-2.1l2-1.5l2.2-0.2l2.3-1l2.8-0.4l3.1-0.2l2.6,0.2l2.2,0.8
				l1.7,1.5l0.4,1.3l-1,1.6l-1.6,0.9l-3.2,0.9l-3.1,1.3l-3,1.2l-2,1.7l-3,1.6l-2.2,0.2l-2.3,1.7l-3,1.7l-2.9,2.1L98,85l-1.6,1.9
				l-0.9,1.5v1.6l1.6,1.9l1.6,1l3.2,2l2.2,2.7l3,2.2l7.4,7.2l1.6,2.5l3,2.6l2.2,2.5l2.6,1.1l2.7,1.9l2.8,1.3l1.3,1.9l2,1.7
				L133.5,123.6z"/>-->
			<path d="M78.9,141C78.9,141,78.9,141,78.9,141l-1.8-0.4c-0.1,0-0.2-0.1-0.2-0.2l-0.4-1.9l0-3.3c0,0,0-0.1,0-0.1l2.2-4l1.1-3.3
				v-3.1l0.6-3.8l-0.3-3.4l0.3-4.6l0-5.2l-0.3-5.1l-0.9-6.1l-2.2-4.2c0,0,0-0.1,0-0.1l-0.2-4.4l0-5.3l0.2-3.4l0.4-3.2l-0.9-3.4
				c0,0,0,0,0-0.1v-4l0.2-4.4l0.2-1.9l-0.2-3.5l-1.2-3c0,0,0-0.1,0-0.1l-0.2-3.4l0-5.6l-1.3-4.3c0,0,0-0.1,0-0.1l0.7-5.6l-2.4-3.1
				c0,0-0.1-0.1-0.1-0.2l0.2-5l0-3.2l-0.4-3.1c0,0,0-0.1,0-0.1l0.9-4.3l-0.7-3.8c0-0.1,0-0.1,0-0.2l1.3-2.7c0,0,0-0.1,0.1-0.1
				l2.3-2.1L78,6.3l2.6-2.5c0,0,0.1,0,0.1-0.1l3.1-0.9c0,0,0.1,0,0.1,0l3.5,0.6l2.3,0.9l3.2,1.6l2.8,2.3c0,0,0,0,0,0l2,2.7l1.1,2.3
				c0,0,0,0.1,0,0.1l0.2,2.5c0,0,0,0.1,0,0.1l-1.1,2.7l-0.9,2.6l-1.3,3.4l-1.9,3l-0.2,3.2c0,0,0,0,0,0.1l-1.1,2.9l-1.1,4.1l0.4,2.9
				c0,0,0,0.1,0,0.1l-1.6,3.8c0,0,0,0,0,0.1l-2.5,3.2v4.6l-0.4,1.8l0.2,2.8l0,9.5l-0.2,2.7l0.7,4.3c0,0,0,0,0,0.1l-0.4,3.9l7.8-3.6
				l3.1-2.7c0,0,0.1,0,0.1,0l2.3-0.7l2.2-1.5l6-2.1l2-1.5c0,0,0.1,0,0.1,0l2.2-0.2l2.3-1c0,0,0,0,0.1,0l2.8-0.4l3.1-0.2l2.6,0.2
				c0,0,0,0,0.1,0l2.2,0.8c0,0,0.1,0,0.1,0l1.7,1.5c0,0,0.1,0.1,0.1,0.1l0.4,1.3c0,0.1,0,0.2,0,0.2l-1,1.6c0,0,0,0.1-0.1,0.1
				l-1.6,0.9c0,0,0,0-0.1,0l-3.2,0.9l-3.1,1.3l-3,1.2l-2,1.6l-3.1,1.6c0,0-0.1,0-0.1,0l-2.2,0.2l-2.3,1.6l-3,1.7l-2.9,2.1l-3.2,2.5
				L96.6,87l-0.8,1.4v1.4l1.5,1.8l1.5,1l3.2,2c0,0,0,0,0.1,0.1l2.2,2.7l3,2.2l7.4,7.2l1.6,2.5l3,2.6l2.2,2.5l2.5,1.1l2.7,2l2.7,1.3
				c0,0,0.1,0,0.1,0.1l1.3,1.9l2,1.6c0,0,0,0,0,0l0.8,1.1c0,0.1,0.1,0.1,0,0.2l-0.4,1.4c0,0.1-0.1,0.2-0.2,0.2l-1.7,0.2l-2.9,0
				c0,0-0.1,0-0.1,0l-3.2-1.1l-3.5-1.6c0,0-0.1-0.1-0.1-0.1l-0.9-1.6l-2.7-1.7c0,0,0,0-0.1,0l-2.2-2.6l-3-2.3l-4.2-4.9l-1.5-2.3
				l-2.6-1.8l-3.2-1.9l-2.6-1.9l-2.9-1.6l-4.6-3.6l-3.5-3.2l-0.6,12.2l-0.4,2.4l0,8.6c0,0,0,0,0,0.1l-0.7,2.6l-0.6,6.3l-0.7,2.9
				l-2,7.5l-0.2,2.5c0,0,0,0.1,0,0.1l-1.1,2.3c0,0.1-0.1,0.1-0.2,0.1L78.9,141C78.9,141,78.9,141,78.9,141z M77.3,140.2l1.6,0.3
				l1.9-0.3l1-2.2l0.2-2.5l2-7.5l0.7-2.9l0.6-6.3l0.7-2.6v-8.6l0.5-2.5l0.7-12.7c0-0.1,0.1-0.2,0.2-0.2c0.1,0,0.2,0,0.3,0l3.9,3.5
				l4.6,3.6l2.9,1.6l2.6,1.9l3.2,1.9l2.7,1.9c0,0,0,0,0.1,0.1l1.6,2.3l4.1,4.9l3,2.3l2.2,2.6l2.8,1.7c0,0,0.1,0.1,0.1,0.1l0.9,1.6
				l3.4,1.5l3.2,1.1h2.9l1.5-0.2l0.4-1.1l-0.7-1l-2-1.6c0,0,0,0,0-0.1l-1.3-1.9l-2.7-1.3l-2.7-2l-2.5-1.1c0,0-0.1,0-0.1-0.1
				l-2.2-2.5l-3-2.6c0,0,0,0,0-0.1l-1.6-2.5l-7.3-7.2l-3-2.2l-2.3-2.7L97,92c0,0,0,0-0.1,0l-1.6-1.9c0,0-0.1-0.1-0.1-0.2v-1.6
				c0,0,0-0.1,0-0.1l0.9-1.5l1.6-1.9l3.3-2.5l2.9-2.1l3-1.7l2.3-1.7c0,0,0.1,0,0.1,0l2.2-0.2l3-1.6l2-1.6c0,0,0,0,0.1,0l3-1.2
				l3.1-1.3l3.2-0.9l1.5-0.9l0.9-1.4l-0.4-1.1l-1.6-1.4l-2.2-0.8l-2.5-0.2l-3.1,0.2l-2.7,0.4l-2.3,1c0,0-0.1,0-0.1,0l-2.2,0.2
				l-1.9,1.4c0,0,0,0-0.1,0l-6,2.1l-2.2,1.5c0,0,0,0-0.1,0l-2.3,0.7l-3.1,2.7c0,0,0,0-0.1,0l-8.2,3.8c-0.1,0-0.2,0-0.3,0
				c-0.1-0.1-0.1-0.1-0.1-0.2l0.4-4.3l-0.7-4.3l0.2-2.7l0-9.4l-0.2-2.9c0,0,0-0.1,0-0.1l0.4-1.8l0-4.7c0-0.1,0-0.1,0.1-0.2l2.5-3.2
				l1.5-3.7L91,37.8c0,0,0-0.1,0-0.1l1.1-4.2l1.1-2.9l0.2-3.2c0,0,0-0.1,0-0.1l1.9-3.1l1.3-3.4l0.9-2.6l1.1-2.6l-0.2-2.4l-1.1-2.2
				l-2-2.6l-2.8-2.2l-3.2-1.5l-2.2-0.9l-3.3-0.5l-3,0.9l-2.5,2.5L76.2,9l-2.3,2.1l-1.3,2.6l0.7,3.7c0,0,0,0.1,0,0.1l-0.9,4.3
				l0.4,3.1l0,3.3l-0.2,4.9l2.4,3.1c0,0.1,0.1,0.1,0.1,0.2l-0.7,5.7l1.3,4.3c0,0,0,0,0,0.1v5.7l0.2,3.4l1.2,3c0,0,0,0.1,0,0.1
				l0.2,3.6l-0.2,1.9l-0.2,4.3l0,3.9l0.9,3.4c0,0,0,0.1,0,0.1l-0.4,3.2l-0.2,3.4l0,5.3l0.2,4.3l2.2,4.2c0,0,0,0.1,0,0.1l0.9,6.2
				l0.3,5.1l0,5.2l-0.3,4.6l0.3,3.4l-0.6,3.9l0,3.1c0,0,0,0.1,0,0.1l-1.1,3.4l-2.2,4v3.2L77.3,140.2z"/>
		</g>
	</g>
</g>
</svg>
